<svg width="78" height="108" viewBox="0 0 98 128" fill="none" xmlns="http://www.w3.org/2000/svg">
    <path
        d="M5.78182 1.85852C2.83596 3.66364 1.02827 6.20417 0.492664 9.34641C-0.578557 15.6309 5.84877 22.0491 12.2761 20.9794C15.4228 20.4445 19.0382 17.5697 20.2433 14.628C21.3145 12.0207 20.7789 6.93959 19.1051 4.66648C16.2262 0.788826 9.7989 -0.615152 5.78182 1.85852Z"
        fill="#663C11" />
    <path
        d="M36.8472 11.6195C34.9726 12.6224 21.3814 30.7404 20.2433 33.7489C17.2305 41.5042 24.3942 49.527 32.3615 47.3876C35.9768 46.3847 37.2489 45.0476 45.2831 33.8158C50.9739 25.8599 51.9782 24.1216 52.179 21.4474C52.7146 15.2966 48.2959 10.6167 42.0694 10.6167C40.1948 10.6835 37.8515 11.0847 36.8472 11.6195Z"
        fill="#663C11" />
    <path
        d="M70.122 20.645C68.9838 20.9793 67.1761 22.2496 66.0379 23.453C61.7531 27.9324 15.2889 92.5823 14.6863 94.8554C12.0083 104.55 23.8587 112.037 31.2233 105.352C32.1606 104.55 44.1449 88.3703 57.9368 69.3163C74.6077 46.3847 83.1775 34.0831 83.4453 32.5454C83.9139 30.0718 83.1105 26.6621 81.5037 24.2553C79.5621 21.2467 74.0051 19.5085 70.122 20.645Z"
        fill="#663C11" />
    <path
        d="M64.7658 80.9493C61.753 82.019 60.414 83.4898 52.9155 93.7857C46.4881 102.611 46.0864 103.346 45.8186 106.89C45.5508 111.168 47.0237 114.11 50.5052 116.316C52.2459 117.386 53.518 117.586 56.6647 117.386C60.414 117.185 60.8157 116.985 63.3599 114.11C67.4439 109.631 77.0849 95.9919 77.8883 93.5851C79.2943 89.6406 76.951 83.8241 73.3356 81.8853C70.5906 80.4813 67.1091 80.0802 64.7658 80.9493Z"
        fill="#663C11" />
    <path
        d="M82.508 108.36C78.5579 110.366 76.1476 114.845 76.8172 118.991C77.3528 122.133 80.2317 125.743 83.1775 126.946C85.7886 128.016 90.8769 127.481 93.1533 125.81C97.2373 122.801 98.4424 116.249 95.7644 112.238C92.2829 107.224 87.4624 105.82 82.508 108.36Z"
        fill="#663C11" />
</svg>