<?xml version="1.0" encoding="utf-8"?>
<!-- Generator: Adobe Illustrator 25.0.0, SVG Export Plug-In . SVG Version: 6.00 Build 0)  -->
<svg version="1.1" id="Capa_1" xmlns="http://www.w3.org/2000/svg" xmlns:xlink="http://www.w3.org/1999/xlink" x="0px" y="0px"
	 viewBox="0 0 537 537" style="enable-background:new 0 0 537 537;" xml:space="preserve">
<style type="text/css">
	.st0{fill:#F9458E;}
</style>
<g>
	<path class="st0" d="M203.3,470.96c-7.65-7.65-15.29-19.11-19.11-26.76c-3.82-7.65-11.29-26.4-11.47-26.76
		c-3.82-7.65-6.29-9.29-15.29-15.29c-11.47-7.65-17.1-9.45-34.4-26.76c-7.65-7.65-6.33-17.66-6.32-18.24
		c0.18-6.1,2.81-11.6,6.49-15.59c5.67-6.14,14.29-10.39,27.27-10.39c2.54,0,2.6,0,1.3-11.69c-0.97-8.74-1.3-18.18,0-33.77
		c0.54-6.47,2.6-16.88,2.6-16.88c5.2-28.57,11.53-45.36,14.29-54.55c1.04-3.48,0.9-8.92,0.23-10.91c-2.3-6.91-2.48-11.37-8.03-18.97
		c-4.84-6.61-9.06-18.06-9.09-23.38c-0.08-14.3,20.78-31.17,46.76-25.98c10.27,2.05,16.8,4.2,20.78,5.2c5.2,1.3,6.49,1.3,9.09,2.6
		c0,0,11.41-8.37,14.92-10.71c3.9-2.6,12.16-8.1,12.16-8.1s-8.21-2.92-12.16-4.05c-28.36-8.1-32.41-8.1-48.62-8.1
		c-23.25,0-23.07-8.47-15.52-23.69c3.04-6.08,8.22-11.05,11.56-17.02c1.45-2.53,1.98-7.07,0.62-9.28c-1.38-2.28-5.62-3.89-8.57-3.82
		c-3.64,0.12-7.53,1.73-10.78,3.62c-8.15,4.81-16.11,9.96-24.27,15.15c-2.21,1.4-5.13,0.9-6.74-1.16c-1.56-2-3.17-4.04-4.82-6.04
		c-13.86-16.79-31.13-28.32-52.46-33.27c-5.2-1.2-10.69-2.14-15.91-1.73c-3.2,0.25-7.41,2.6-8.91,5.27
		c-1.13,2.07,0.37,6.79,2.21,9.12c5.25,6.59,11.38,12.46,16.99,18.77l0,0c3.35,3.77-0.21,9.56-5.09,8.32
		c-2.76-0.7-5.35-1.23-7.96-1.48c-4.37-0.39-10.66,0.51-13.13,3.36c-4.31,5,0.46,9.53,4.17,13.72
		c8.91,10.02,17.89,20.03,26.02,30.67c7.48,9.79,8.34,21.14,0.83,31.06c-10.17,13.43-21.37,26.12-32.19,38.99
		c-1.52,1.81-4.09,2.33-6.19,1.26c-8.84-4.52-17.74-9.32-27.06-13.09c-2.92-1.2-9,0.39-10.78,2.79c-1.57,2.14-0.53,8.96,1.7,10.66
		c11.26,8.73,16.56,21.05,21.55,33.44c1.82,4.56,2.28,10.52,1.13,15.31c-5.37,22.61-8.04,45.48-5.78,68.53
		c1.78,18.22,5.21,36.29,8.21,55.39c0.34,2.16-0.73,4.31-2.67,5.33c-4.75,2.5-9.75,5.03-14.43,8.06
		c-5.25,3.38-12.99,6.22-10.66,14.42c2.53,8.89,10.18,5.25,16.51,5.16c15.04-0.25,27.84,2.28,36.22,18.12
		c13.24,25.03,32.38,45.73,55.59,62.11c39.4,27.76,73.9,33.09,131.24,33.09h11.29c0.04,0,0.06-0.06,0.02-0.08
		c-1.13-0.58-8.44-4.37-18.96-11.39C221.8,490.94,207.12,474.78,203.3,470.96z"/>
	<path class="st0" d="M525.33,333.74c-3.2-2.39-7.78-3.06-11.84-4.17c-5-1.34-10.06-2.44-15.24-3.64c-1.38-0.32-2.39-1.59-2.39-3.02
		c0.02-3.82,0.02-7,0-10.16c-0.21-35.51-6.98-69.8-24.48-100.7c-8.22-14.53-8.93-27.86-4.31-42.49c2.14-6.82,5.43-13.36,8.89-19.64
		c2.37-4.31,3.11-8.64-0.78-11.28c-2.58-1.75-7.14-1.7-10.45-0.94c-2.72,0.62-5.04,3.34-7.3,5.41
		c-6.03,5.57-11.97,11.28-17.41,16.46c-1.06,0.99-2.65,1.11-3.85,0.3c-13.95-9.53-27.49-18.65-40.85-28.02
		c-10.2-7.16-14.3-19.44-9.79-31.69c3.98-10.75,9.23-21.05,14.05-31.48c1.27-2.79,3.71-5.25,4.21-8.13
		c0.64-3.78,1.4-9.33-0.62-11.35c-2.14-2.14-7.88-2.19-11.42-1.13c-5.02,1.52-9.46,4.95-14.19,7.46c-0.37,0.21-0.74,0.39-1.13,0.58
		c-2.51,1.24-5.23-1.29-4.21-3.89c0.32-0.83,0.64-1.59,1.01-2.3c4.08-8.24,8.73-16.26,12.3-24.71c1.43-3.41,2.3-9.65,0.46-11.26
		c-2.69-2.37-8.04-2.37-12.23-2.23c-2.88,0.09-5.76,1.98-8.5,3.34c-22.04,10.75-37.01,28.09-46.7,50.34
		c-0.94,2.19-1.91,4.35-2.69,6.1c-0.62,1.36-2.14,2.07-3.59,1.7c-12.94-3.32-24.64-6.7-36.57-8.8c-3.41-0.6-8.98,2.23-11.17,5.23
		c-3.32,4.63,0.74,8.34,4.72,11.21c3.73,2.67,7.6,5.25,10.87,8.43c7.83,7.6,13.03,16.23,8.61,27.75
		c-4.47,11.61-38.8,28.81-46.95,35.78c-4.1,3.75-6.75,6.93-10.06,10.18c-0.99,0.97-2.51,1.13-3.71,0.44
		c-12.8-7.39-27.03-9.83-41.77-9.81c-11.33,0-15.11,5.07-10.62,15.22c4.01,9.07,9.23,17.64,14.51,26.07
		c5.92,9.46,7.16,18.1,2.33,29.06c-15.59,35.39-21.53,72.61-17.78,111.25c0.32,3.43,0.41,6.89,0.51,10.32
		c0.02,0.69-0.51,1.36-1.01,2.65c-8.36,0.9-18.12-0.53-26.8,0.37c-4.84,0.48-8.15,4.08-9.12,9.76c-1.06,6.33,3.75,7.85,8.01,10.82
		c14.42,9.99,28.3,20.75,42.19,31.48c1.96,1.5,2.99,4.38,4.08,6.79c14.67,32.95,35.55,60.79,65.77,81.15
		c1.08,0.71,9.97,6.22,14.58,8.52c0.16,0.09,16.93,7.41,18.91,8.01c48.63,14.99,92.62,5.71,131.9-25.79
		c32.91-26.37,53.26-61.32,63.44-101.71c3.45-13.72,11.47-19.99,22.87-24.36c4.24-1.63,9.19-1.34,13.36-3.06
		c3.11-1.29,7.62-4.38,7.65-6.72C531.04,340.14,528.21,335.9,525.33,333.74z M416.83,408.11c-6.49,10.98-15.75,20.89-25.45,29.34
		c-32.45,28.19-75.81,29.01-109.86,2.67c-29.04-22.45-44.19-53.35-51.24-88.54c-2.39-11.97-3.02-24.29-3.78-30.76
		c0.41-39.84,8.15-71.85,26.97-100.63c10.2-15.64,22.89-28.85,39.35-37.95c28.99-15.98,57.94-15.52,86.33,1.4
		c18.88,11.26,33.34,27.13,43.06,46.77C451.95,290.49,451.09,350.11,416.83,408.11z"/>
	<circle class="st0" cx="277.93" cy="265.85" r="14.35"/>
	<circle class="st0" cx="277.93" cy="318.45" r="14.35"/>
	<circle class="st0" cx="277.93" cy="371.04" r="14.35"/>
	<path class="st0" d="M387.93,278.08h-69.08c-7.01,0-12.75-5.74-12.75-12.75v0c0-7.01,5.74-12.75,12.75-12.75h69.08
		c7.01,0,12.75,5.74,12.75,12.75v0C400.69,272.34,394.95,278.08,387.93,278.08z"/>
	<path class="st0" d="M387.93,330.67h-69.08c-7.01,0-12.75-5.74-12.75-12.75v0c0-7.01,5.74-12.75,12.75-12.75h69.08
		c7.01,0,12.75,5.74,12.75,12.75v0C400.69,324.93,394.95,330.67,387.93,330.67z"/>
	<path class="st0" d="M387.93,383.26h-69.08c-7.01,0-12.75-5.74-12.75-12.75v0c0-7.01,5.74-12.75,12.75-12.75h69.08
		c7.01,0,12.75,5.74,12.75,12.75v0C400.69,377.52,394.95,383.26,387.93,383.26z"/>
</g>
</svg>
