<svg width="200" height="94" viewBox="0 0 200 94" fill="none" xmlns="http://www.w3.org/2000/svg">
<path d="M0.731554 6.4414C0.724164 2.6217 4.42843 -0.169794 8.07532 0.888598C10.1361 1.50418 10.7855 2.30498 13.5181 7.57341C17.5254 15.3218 22.2279 22.1941 27.9944 28.728C37.778 39.7343 51.4423 49.0886 63.4511 52.9481L66.7311 53.9805L64.6911 49.0985C63.0414 45.1381 62.5585 43.5109 62.1515 40.8629C60.9306 32.3276 62.7264 25.1052 67.7374 18.9454C71.045 14.8805 72.8906 13.4287 77.8767 11.1037C83.657 8.36882 88.1203 7.62764 93.8822 8.48805C107.063 10.382 116.964 20.6244 118.392 33.8318C119.533 44.1388 115.186 53.497 106.333 59.8716C104.457 61.2587 97.2695 64.6103 95.0809 65.1579C94.2608 65.3433 93.6305 65.5978 93.6607 65.6625C93.8872 66.1481 97.782 68.0763 101.103 69.3655C114.007 74.3841 129.388 74.7399 147.118 70.4135C155.018 68.5035 160.666 66.5002 170.47 62.1652L179.449 58.1753L169.844 54.653C159.497 50.8068 159.104 50.5564 158.339 47.563C157.891 45.8408 158.928 42.9925 160.378 41.9614C163.036 40.0522 162.718 39.9636 181.043 46.6324C195.807 52.0055 198.099 52.947 198.759 53.9398C200.683 56.6292 200.757 56.2797 194.086 74.6038C187.416 92.9279 187.552 92.628 184.382 93.4364C182.659 93.8848 179.811 92.8482 178.78 91.3977C176.979 88.8875 177.024 88.3933 180.757 78.1394L184.198 68.6127L174.912 72.7061C162.471 78.2317 154.135 80.8968 142.986 83.0217C122.905 86.7886 104.374 84.7487 90.2925 77.2048C86.607 75.2185 81.9659 71.9436 79.0814 69.3079C76.9002 67.2507 76.8678 67.2658 73.4581 66.8851C59.6746 65.3903 45.2582 58.9879 32.2632 48.5332C19.9716 38.657 10.5746 26.9581 3.23299 12.5665C1.27682 8.70962 0.722628 7.35208 0.731554 6.4414ZM79.5983 52.7495C80.6143 54.1676 81.762 55.4455 82.1418 55.5837C83.2487 56.0134 89.6371 55.0052 93.0884 53.8688C100.828 51.3632 105.977 46.0062 106.987 39.4655C108.81 27.7372 98.4221 17.8011 86.6639 19.9733C79.8049 21.2404 74.017 27.1712 73.1646 33.7961C72.9135 35.9627 73.2318 39.5192 73.9022 41.8867C74.6308 44.4636 77.2879 49.5702 79.5983 52.7495Z" fill="white"/>
</svg>
